<svg xmlns="http://www.w3.org/2000/svg" width="16" height="16" viewBox="0 0 16 16"><path fill="#FFF" d="M15.98 9.852c.013.037.02.086.02.148v5c0 .27-.1.507-.296.704-.198.197-.433.296-.704.296H1c-.27 0-.506-.1-.704-.296C.1 15.507 0 15.27 0 15v-5c0-.062.006-.11.02-.148l1.332-9c.024-.247.132-.45.324-.61.19-.16.41-.242.657-.242h11.333c.246 0 .463.08.647.24.186.162.297.365.334.612l1.334 9zM3.205 2L2.02 10h3.258c.148 0 .253.068.315.204l.648 1.592c.062.137.167.204.316.204h2.89c.147 0 .252-.067.313-.204l.647-1.592c.062-.136.167-.204.316-.204h3.26l-1.187-8H3.204z"/></svg>