<svg xmlns="http://www.w3.org/2000/svg" width="12" height="18" viewBox="0 0 12 18"><path fill="#5E6D81" d="M1.76 1.76C2.934.587 4.348 0 6 0s3.065.587 4.24 1.76C11.412 2.934 12 4.347 12 6c0 1.042-.257 2.02-.77 2.938l-4.897 8.875c-.07.125-.18.187-.333.187s-.264-.062-.334-.188L.77 8.938C.258 8.062 0 7.083 0 6c0-1.653.586-3.066 1.76-4.24zm2.646 5.834c.438.437.97.656 1.594.656s1.156-.22 1.594-.656.656-.97.656-1.594-.22-1.156-.656-1.594S6.624 3.75 6 3.75s-1.156.22-1.594.656S3.75 5.376 3.75 6s.22 1.156.656 1.594z"/></svg>