<svg xmlns="http://www.w3.org/2000/svg" width="12" height="16" viewBox="0 0 12 16"><path fill="#FFF" d="M12 1.222v7.26c0 .11-.062.21-.186.295-.703.37-1.474.556-2.314.556-.753 0-1.92-.222-3.5-.666S3.253 8 2.5 8c-.062 0-.148.003-.26.01-.11.006-.19.01-.24.01v7.647c0 .1-.03.18-.093.24-.06.063-.14.093-.24.093H.333c-.1 0-.18-.03-.24-.093-.063-.06-.094-.14-.094-.24V.852C0 .728.056.636.166.574.856.19 1.636 0 2.5 0c.753 0 1.92.222 3.5.667 1.58.445 2.747.667 3.5.667.74 0 1.42-.142 2.037-.426.123-.05.23-.037.314.037.1.06.15.154.15.277z"/></svg>