<svg xmlns="http://www.w3.org/2000/svg" width="16" height="16" viewBox="0 0 16 16"><path fill="#5E6D81" d="M15.99.375l-1.998 15.318c-.024.123-.088.21-.187.258-.1.063-.197.063-.296 0l-5.09-2.533-1.83 2.442c-.062.086-.15.13-.26.13-.05 0-.088-.007-.11-.02-.15-.037-.224-.142-.224-.314v-3.33c0-.087.025-.155.074-.204l7.273-9.36-9.456 8.158c-.062.05-.135.074-.224.074-.05 0-.097-.012-.147-.037L.186 9.29C.062 9.23 0 9.14 0 9.016c0-.136.056-.24.166-.314L15.49.043c.123-.062.242-.056.352.02.124.072.173.177.148.313z"/></svg>