<svg xmlns="http://www.w3.org/2000/svg" width="18" height="17" viewBox="0 0 18 17"><path fill="#5E6D81" d="M2.635 2.152C4.393.72 6.515.002 9 .002s4.607.717 6.364 2.15S18 5.324 18 7.366c0 2.043-.88 3.78-2.636 5.213-1.757 1.435-3.878 2.15-6.364 2.15-.486 0-.993-.033-1.52-.104-1.57 1.582-3.19 2.37-4.855 2.37-.166 0-.285-.074-.354-.23-.056-.166-.028-.307.083-.42.084-.083.19-.21.324-.377.13-.168.318-.51.562-1.028.24-.52.397-1.056.468-1.615-1.154-.687-2.06-1.55-2.72-2.592C.33 9.692 0 8.57 0 7.365c0-2.04.88-3.78 2.635-5.213zm.803 6.095c.29.293.646.442 1.062.442s.77-.15 1.062-.443c.292-.29.438-.65.438-1.068 0-.42-.146-.78-.438-1.073-.29-.292-.646-.44-1.062-.44s-.77.148-1.062.44C3.146 6.4 3 6.76 3 7.18c0 .417.146.776.438 1.067zm4.5 0c.29.293.646.442 1.062.442.417 0 .77-.15 1.062-.443.292-.29.438-.65.438-1.068 0-.42-.146-.778-.438-1.072-.29-.293-.645-.44-1.062-.44-.416 0-.77.147-1.062.44-.292.293-.438.652-.438 1.07 0 .42.146.778.438 1.07zm4.5 0c.292.293.646.442 1.062.442s.77-.15 1.062-.443c.292-.29.438-.65.438-1.068 0-.42-.146-.778-.438-1.072-.292-.292-.646-.44-1.062-.44s-.77.148-1.062.44C12.146 6.4 12 6.76 12 7.178c0 .42.146.778.438 1.07z"/></svg>