<svg xmlns="http://www.w3.org/2000/svg" width="14" height="18" viewBox="0 0 14 18"><path fill="#5E6D81" d="M12.834 7.875c.315 0 .59.11.82.333S14 8.695 14 9v7.875c0 .306-.115.57-.346.792-.23.222-.505.333-.82.333H1.166c-.315 0-.59-.11-.82-.333-.23-.223-.346-.486-.346-.792V9c0-.305.115-.57.347-.792.23-.222.504-.333.82-.333h1.167V4.5c0-1.236.457-2.295 1.37-3.177C4.62.44 5.718 0 7 0c1.282 0 2.38.44 3.294 1.323.915.882 1.372 1.94 1.372 3.177v3.375h1.168zM4.667 4.5v3.375h4.666V4.5c0-.625-.228-1.156-.68-1.594-.455-.437-1.005-.656-1.654-.656-.648 0-1.2.22-1.652.656s-.68.97-.68 1.594z"/></svg>