<svg xmlns="http://www.w3.org/2000/svg" width="15" height="14" viewBox="0 0 15 14"><path fill="#FFF" d="M6.126 1.458V12.54c0 .13-.06.224-.18.276-.13.043-.236.02-.322-.065l-3.13-3.125H.293c-.076 0-.144-.025-.203-.08C.03 9.49 0 9.42 0 9.332V4.667c0-.086.03-.156.09-.21.057-.054.126-.08.2-.08h2.205L5.622 1.25c.086-.088.194-.11.324-.066.12.053.18.146.18.274zM9.3 11.634c-.14.13-.274.13-.404 0l-.826-.81c-.13-.15-.13-.292 0-.422C9.008 9.462 9.48 8.33 9.48 7s-.473-2.463-1.41-3.403c-.142-.13-.142-.265 0-.405l.825-.826c.13-.13.265-.13.405 0 .843.843 1.412 1.826 1.71 2.95.297 1.123.297 2.247 0 3.37-.297 1.123-.866 2.106-1.71 2.948zm1.864 2.27l-.826-.812c-.13-.15-.13-.292 0-.422 1.026-1.025 1.72-2.23 2.082-3.604.363-1.38.363-2.755 0-4.132-.36-1.377-1.056-2.58-2.082-3.605-.142-.13-.142-.266 0-.406l.826-.827c.13-.13.265-.13.404 0 1.253 1.253 2.104 2.717 2.553 4.39.448 1.676.448 3.35 0 5.024-.448 1.676-1.3 3.14-2.552 4.393-.14.13-.275.13-.404 0z"/></svg>