<svg xmlns="http://www.w3.org/2000/svg" width="18" height="18" viewBox="0 0 18 18"><path fill="#5E6D81" d="M16.875 0c.306 0 .57.11.792.334.222.222.333.486.333.79v15.75c0 .307-.11.57-.333.793-.223.222-.486.333-.792.333H1.125c-.306 0-.57-.11-.79-.333C.11 17.444 0 17.18 0 16.875V1.125C0 .82.11.555.334.335.554.11.82 0 1.124 0h1.5v2.25c0 .306.112.57.335.79.22.224.484.335.79.335.305 0 .57-.11.79-.334.224-.22.335-.484.335-.79V0h8.25v2.25c0 .306.11.57.333.79.223.224.486.335.792.335s.57-.11.792-.334c.222-.22.333-.484.333-.79V0h1.5zM12.75 12.375v-2.25h-2.625V7.5h-2.25v2.625H5.25v2.25h2.625V15h2.25v-2.625h2.625z"/></svg>