<svg xmlns="http://www.w3.org/2000/svg" width="16" height="16" viewBox="0 0 16 16"><path fill="#5E6D81" d="M15.897 6.568l-3.885 3.866.98 5.162c.024.147-.024.258-.148.333-.05.036-.11.054-.185.054-.074 0-.137-.02-.187-.055l-4.477-2.887L3.52 15.93c-.125.084-.248.084-.37 0-.125-.076-.175-.187-.15-.334l.98-5.162L.1 6.568c-.1-.1-.125-.222-.076-.37.062-.136.167-.204.314-.204h5.105L7.683.222C7.742.074 7.85 0 7.997 0s.253.074.314.222l2.238 5.772h5.106c.147 0 .253.067.314.204.05.148.026.27-.073.37z"/></svg>