<svg xmlns="http://www.w3.org/2000/svg" width="12" height="18" viewBox="0 0 12 18"><path fill="#14B9D6" d="M1.76 1.76C2.934.588 4.348 0 6 0s3.065.587 4.24 1.76C11.412 2.935 12 4.348 12 6c0 1.042-.257 2.02-.77 2.938l-4.897 8.875c-.07.125-.18.187-.333.187s-.264-.062-.334-.188L.77 8.938C.258 8.063 0 7.084 0 6c0-1.652.586-3.065 1.76-4.24zm2.646 5.834c.438.438.97.656 1.594.656s1.156-.22 1.594-.656.656-.97.656-1.594-.22-1.156-.656-1.593S6.624 3.75 6 3.75s-1.156.22-1.594.657S3.75 5.375 3.75 6s.22 1.157.656 1.594z"/></svg>