<svg xmlns="http://www.w3.org/2000/svg" width="18" height="18" viewBox="0 0 18 18"><path fill="#5E6D81" d="M18 16.875v.75c0 .11-.035.2-.104.27-.07.07-.16.105-.27.105H.375c-.112 0-.202-.034-.272-.104-.07-.07-.104-.16-.104-.27v-.75c0-.695.232-1.282.697-1.762.466-.48 1.028-.854 1.688-1.125.66-.272 1.32-.528 1.98-.772.658-.243 1.22-.56 1.688-.948.465-.39.697-.854.697-1.396-.056-.056-.135-.143-.24-.26-.104-.118-.284-.383-.54-.792-.26-.41-.487-.844-.69-1.302-.2-.458-.382-1.05-.54-1.78-.16-.73-.24-1.476-.24-2.24 0-1.236.44-2.295 1.322-3.177C6.705.44 7.764 0 9 0s2.295.44 3.177 1.323c.882.882 1.323 1.94 1.323 3.177 0 .764-.076 1.507-.23 2.23-.15.722-.34 1.322-.56 1.8-.223.48-.445.904-.667 1.272-.223.368-.41.643-.562.823l-.228.25c0 .542.232 1.007.698 1.396.465.39 1.027.706 1.688.95.66.242 1.32.5 1.98.77.66.27 1.222.646 1.687 1.125.463.48.695 1.066.695 1.76z"/></svg>