<svg xmlns="http://www.w3.org/2000/svg" width="18" height="18" viewBox="0 0 18 18"><path fill="#5E6D81" d="M14.6 8.268v7.484c0 .61-.222 1.136-.666 1.58-.443.444-.97.665-1.58.665H2.246c-.61 0-1.137-.22-1.582-.665-.44-.444-.664-.97-.664-1.58V4.524c0-.61.223-1.136.664-1.58.445-.443.973-.664 1.582-.664h8.61L8.608 4.524H2.245v11.228h10.107v-5.24L14.6 8.268zm1.123-3.37l-7.82 7.817c-.04.04-.076.062-.103.062l-3.598 1.496-.022.024c-.013 0-.035.002-.062.01-.028.007-.05.01-.062.01-.098 0-.18-.042-.25-.124-.11-.11-.146-.236-.104-.375l.02-.02L5.22 10.2c0-.026.02-.062.062-.103l7.82-7.816 2.62 2.62zm2.14-2.66l-2.1-2.1c-.166-.18-.34-.18-.52 0l-1.02 1.018 2.62 2.62 1.02-1.02c.182-.18.182-.352 0-.517z"/></svg>