<?xml version="1.0" encoding="utf-8"?>
<!-- Generator: Adobe Illustrator 16.0.0, SVG Export Plug-In . SVG Version: 6.00 Build 0)  -->
<!DOCTYPE svg PUBLIC "-//W3C//DTD SVG 1.1//EN" "http://www.w3.org/Graphics/SVG/1.1/DTD/svg11.dtd">
<svg version="1.1" xmlns="http://www.w3.org/2000/svg" xmlns:xlink="http://www.w3.org/1999/xlink" x="0px" y="0px" width="18px"
	 height="18px" viewBox="0 0 18 18" enable-background="new 0 0 18 18" xml:space="preserve">
<g id="Layer_2">
</g>
<g id="Layer_1">
	<g>
		<path fill="#5E6D81" d="M16.875,0c0.306,0,0.569,0.111,0.792,0.334C17.889,0.556,18,0.82,18,1.125v15.75
			c0,0.306-0.111,0.569-0.333,0.792C17.444,17.889,17.181,18,16.875,18H1.125c-0.306,0-0.57-0.111-0.791-0.333
			C0.111,17.444,0,17.181,0,16.875V1.125C0,0.82,0.111,0.556,0.334,0.334C0.555,0.111,0.819,0,1.125,0h1.5v2.25
			c0,0.306,0.111,0.57,0.334,0.791C3.18,3.264,3.444,3.375,3.75,3.375c0.305,0,0.569-0.111,0.791-0.334
			C4.764,2.82,4.875,2.556,4.875,2.25V0h8.25v2.25c0,0.306,0.111,0.57,0.333,0.791c0.223,0.223,0.486,0.334,0.792,0.334
			s0.569-0.111,0.792-0.334c0.222-0.221,0.333-0.485,0.333-0.791V0H16.875z M12.75,12.375v-2.25h-2.625V7.5h-2.25v2.625H5.25v2.25
			h2.625V15h2.25v-2.625H12.75z"/>
	</g>
</g>
</svg>
