<?xml version="1.0" encoding="utf-8"?>
<!-- Generator: Adobe Illustrator 16.0.0, SVG Export Plug-In . SVG Version: 6.00 Build 0)  -->
<!DOCTYPE svg PUBLIC "-//W3C//DTD SVG 1.1//EN" "http://www.w3.org/Graphics/SVG/1.1/DTD/svg11.dtd">
<svg version="1.1" xmlns="http://www.w3.org/2000/svg" xmlns:xlink="http://www.w3.org/1999/xlink" x="0px" y="0px" width="12px"
	 height="18px" viewBox="0 0 12 18" enable-background="new 0 0 12 18" xml:space="preserve">
<g id="Layer_2">
</g>
<g id="Layer_1">
	<g>
		<path fill="#14B9D6" d="M1.76,1.761C2.934,0.587,4.348,0,6,0s3.065,0.587,4.239,1.76C11.413,2.935,12,4.348,12,6
			c0,1.042-0.257,2.021-0.771,2.938l-4.896,8.875C6.264,17.938,6.152,18,6,18s-0.264-0.062-0.334-0.188L0.771,8.938
			C0.257,8.063,0,7.084,0,6C0,4.348,0.586,2.935,1.76,1.761z M4.406,7.594C4.844,8.032,5.375,8.25,6,8.25s1.156-0.219,1.594-0.656
			S8.25,6.625,8.25,6S8.031,4.844,7.594,4.407S6.625,3.75,6,3.75S4.844,3.969,4.406,4.407S3.75,5.375,3.75,6
			S3.969,7.157,4.406,7.594z"/>
	</g>
</g>
</svg>
