<?xml version="1.0" encoding="utf-8"?>
<!-- Generator: Adobe Illustrator 16.0.0, SVG Export Plug-In . SVG Version: 6.00 Build 0)  -->
<!DOCTYPE svg PUBLIC "-//W3C//DTD SVG 1.1//EN" "http://www.w3.org/Graphics/SVG/1.1/DTD/svg11.dtd">
<svg version="1.1" xmlns="http://www.w3.org/2000/svg" xmlns:xlink="http://www.w3.org/1999/xlink" x="0px" y="0px" width="18px"
	 height="18px" viewBox="0 0 18 18" enable-background="new 0 0 18 18" xml:space="preserve">
<g id="Layer_2">
</g>
<g id="Layer_1">
	<g>
		<path fill="#5E6D81" d="M18,16.875v0.75c0,0.111-0.035,0.201-0.104,0.271C17.826,17.966,17.736,18,17.625,18H0.375
			c-0.111,0-0.201-0.034-0.271-0.104C0.035,17.826,0,17.736,0,17.625v-0.75c0-0.694,0.232-1.281,0.697-1.761
			c0.466-0.479,1.028-0.854,1.688-1.125c0.66-0.271,1.32-0.527,1.98-0.771c0.658-0.243,1.221-0.559,1.688-0.948
			c0.465-0.389,0.697-0.854,0.697-1.396c-0.056-0.056-0.135-0.143-0.24-0.261c-0.104-0.117-0.284-0.382-0.541-0.791
			c-0.258-0.41-0.486-0.844-0.688-1.302C5.08,8.062,4.898,7.469,4.74,6.74C4.58,6.01,4.5,5.264,4.5,4.5
			c0-1.236,0.441-2.295,1.322-3.177C6.705,0.441,7.764,0,9,0s2.295,0.441,3.177,1.323C13.059,2.205,13.5,3.264,13.5,4.5
			c0,0.764-0.076,1.507-0.229,2.229c-0.152,0.723-0.34,1.323-0.562,1.802c-0.222,0.479-0.444,0.903-0.666,1.271
			c-0.223,0.368-0.41,0.643-0.562,0.823l-0.229,0.25c0,0.542,0.232,1.007,0.698,1.396c0.465,0.39,1.027,0.705,1.688,0.948
			c0.659,0.243,1.319,0.5,1.979,0.771c0.66,0.271,1.223,0.646,1.688,1.125C17.768,15.594,18,16.181,18,16.875z"/>
	</g>
</g>
</svg>
