<?xml version="1.0" encoding="utf-8"?>
<!-- Generator: Adobe Illustrator 16.0.0, SVG Export Plug-In . SVG Version: 6.00 Build 0)  -->
<!DOCTYPE svg PUBLIC "-//W3C//DTD SVG 1.1//EN" "http://www.w3.org/Graphics/SVG/1.1/DTD/svg11.dtd">
<svg version="1.1" xmlns="http://www.w3.org/2000/svg" xmlns:xlink="http://www.w3.org/1999/xlink" x="0px" y="0px" width="16px"
	 height="16px" viewBox="0 0 16 16" enable-background="new 0 0 16 16" xml:space="preserve">
<g id="Layer_2">
</g>
<g id="Layer_1">
	<g>
		<path fill="#5E6D81" d="M15.981,9.852C15.993,9.889,16,9.938,16,10v5c0,0.271-0.099,0.507-0.296,0.704
			C15.506,15.901,15.271,16,15,16H1c-0.271,0-0.506-0.099-0.704-0.296C0.099,15.507,0,15.271,0,15v-5
			c0-0.062,0.006-0.111,0.019-0.148l1.333-9c0.024-0.247,0.132-0.451,0.324-0.611C1.867,0.081,2.086,0,2.333,0h11.333
			c0.246,0,0.463,0.081,0.647,0.241c0.186,0.161,0.297,0.364,0.334,0.611L15.981,9.852z M3.204,2l-1.185,8h3.259
			c0.148,0,0.253,0.068,0.315,0.204l0.648,1.592C6.302,11.933,6.407,12,6.556,12h2.889c0.148,0,0.253-0.067,0.314-0.204l0.648-1.592
			C10.469,10.068,10.574,10,10.723,10h3.259l-1.186-8H3.204z"/>
	</g>
</g>
</svg>
