<?xml version="1.0" encoding="utf-8"?>
<!-- Generator: Adobe Illustrator 16.0.0, SVG Export Plug-In . SVG Version: 6.00 Build 0)  -->
<!DOCTYPE svg PUBLIC "-//W3C//DTD SVG 1.1//EN" "http://www.w3.org/Graphics/SVG/1.1/DTD/svg11.dtd">
<svg version="1.1" xmlns="http://www.w3.org/2000/svg" xmlns:xlink="http://www.w3.org/1999/xlink" x="0px" y="0px" width="18px"
	 height="18px" viewBox="0 0 18 18" enable-background="new 0 0 18 18" xml:space="preserve">
<g id="Layer_2">
</g>
<g id="Layer_1">
	<g>
		<path fill="#5E6D81" d="M14.6,8.268v7.484c0,0.609-0.222,1.136-0.666,1.58c-0.443,0.444-0.97,0.665-1.58,0.665H2.246
			c-0.609,0-1.137-0.221-1.582-0.665C0.223,16.888,0,16.361,0,15.752V4.524c0-0.61,0.223-1.136,0.664-1.58
			C1.109,2.501,1.637,2.28,2.246,2.28h8.609L8.609,4.524H2.246v11.228h10.107v-5.24L14.6,8.268z M15.723,4.899l-7.82,7.816
			c-0.041,0.041-0.076,0.062-0.103,0.062l-3.598,1.496L4.18,14.297c-0.013,0-0.035,0.002-0.062,0.01
			c-0.028,0.007-0.049,0.01-0.062,0.01c-0.098,0-0.181-0.042-0.25-0.124c-0.111-0.111-0.146-0.236-0.104-0.375l0.02-0.021
			l1.498-3.596c0-0.027,0.021-0.063,0.062-0.104l7.821-7.816L15.723,4.899z M17.864,2.239l-2.1-2.102
			c-0.167-0.18-0.341-0.18-0.521,0l-1.019,1.019l2.62,2.62l1.019-1.021C18.045,2.577,18.045,2.404,17.864,2.239z"/>
	</g>
</g>
</svg>
