<?xml version="1.0" encoding="utf-8"?>
<!-- Generator: Adobe Illustrator 16.0.0, SVG Export Plug-In . SVG Version: 6.00 Build 0)  -->
<!DOCTYPE svg PUBLIC "-//W3C//DTD SVG 1.1//EN" "http://www.w3.org/Graphics/SVG/1.1/DTD/svg11.dtd">
<svg version="1.1" xmlns="http://www.w3.org/2000/svg" xmlns:xlink="http://www.w3.org/1999/xlink" x="0px" y="0px" width="14px"
	 height="14px" viewBox="0 0 14 14" enable-background="new 0 0 14 14" xml:space="preserve">
<g id="Layer_2">
</g>
<g id="Layer_1">
	<g>
		<path fill="#FFFFFF" d="M4.959,14H0.291c-0.086,0-0.156-0.027-0.21-0.081S0,13.795,0,13.709V0.292c0-0.086,0.027-0.156,0.081-0.21
			S0.205,0,0.291,0h4.668c0.086,0,0.156,0.027,0.21,0.081S5.25,0.206,5.25,0.292v13.417c0,0.086-0.027,0.156-0.081,0.21
			S5.045,14,4.959,14z M13.709,14H9.041c-0.086,0-0.156-0.027-0.21-0.081s-0.081-0.124-0.081-0.21V0.292
			c0-0.086,0.027-0.156,0.081-0.21S8.955,0,9.041,0h4.668c0.086,0,0.156,0.027,0.21,0.081S14,0.206,14,0.292v13.417
			c0,0.086-0.027,0.156-0.081,0.21S13.795,14,13.709,14z"/>
	</g>
</g>
</svg>
