<?xml version="1.0" encoding="utf-8"?>
<!-- Generator: Adobe Illustrator 16.0.0, SVG Export Plug-In . SVG Version: 6.00 Build 0)  -->
<!DOCTYPE svg PUBLIC "-//W3C//DTD SVG 1.1//EN" "http://www.w3.org/Graphics/SVG/1.1/DTD/svg11.dtd">
<svg version="1.1" xmlns="http://www.w3.org/2000/svg" xmlns:xlink="http://www.w3.org/1999/xlink" x="0px" y="0px" width="16px"
	 height="16px" viewBox="0 0 16 16" enable-background="new 0 0 16 16" xml:space="preserve">
<g id="Layer_2">
</g>
<g id="Layer_1">
	<g>
		<path fill="#FFFFFF" d="M15.897,6.568l-3.885,3.866l0.98,5.162c0.024,0.147-0.024,0.258-0.148,0.333
			c-0.049,0.037-0.109,0.055-0.185,0.055c-0.073,0-0.136-0.019-0.186-0.055l-4.477-2.886l-4.477,2.886
			c-0.124,0.085-0.247,0.085-0.37,0c-0.124-0.075-0.174-0.186-0.148-0.333l0.98-5.162L0.099,6.568C0,6.469-0.025,6.346,0.024,6.198
			c0.062-0.136,0.167-0.204,0.314-0.204h5.105l2.239-5.772C7.744,0.074,7.85,0,7.998,0s0.253,0.074,0.314,0.222l2.238,5.772h5.106
			c0.147,0,0.253,0.067,0.314,0.204C16.021,6.346,15.996,6.469,15.897,6.568z"/>
	</g>
</g>
</svg>
