<svg xmlns="http://www.w3.org/2000/svg" width="15" height="14" viewBox="0 0 15 14"><path fill="#FFF" d="M6.126 1.458V12.54c0 .13-.06.224-.18.276-.13.043-.236.02-.322-.065l-3.13-3.12h-2.2c-.077 0-.144-.02-.204-.08S0 9.42 0 9.34V4.67c0-.085.03-.155.09-.21.057-.053.126-.08.2-.08h2.205l3.127-3.13c.086-.088.194-.11.324-.066.12.053.18.146.18.274zM9.3 11.634c-.14.13-.274.13-.404 0l-.826-.81c-.13-.15-.13-.292 0-.422C9.008 9.462 9.48 8.33 9.48 7s-.473-2.463-1.41-3.403c-.142-.13-.142-.265 0-.405l.825-.826c.13-.13.265-.13.405 0 .843.843 1.412 1.826 1.71 2.95.297 1.123.297 2.247 0 3.37-.297 1.123-.866 2.106-1.71 2.948zm1.864 2.27l-.826-.812c-.13-.15-.13-.292 0-.422 1.026-1.025 1.72-2.23 2.082-3.604.363-1.38.363-2.755 0-4.132-.36-1.377-1.056-2.58-2.082-3.605-.142-.13-.142-.27 0-.41l.826-.83c.13-.13.265-.13.404 0 1.252 1.25 2.104 2.71 2.552 4.39.45 1.67.45 3.35 0 5.02-.44 1.67-1.3 3.14-2.55 4.39-.14.13-.27.13-.4 0z"/></svg>