<?xml version="1.0" encoding="utf-8"?>
<!-- Generator: Adobe Illustrator 16.0.0, SVG Export Plug-In . SVG Version: 6.00 Build 0)  -->
<!DOCTYPE svg PUBLIC "-//W3C//DTD SVG 1.1//EN" "http://www.w3.org/Graphics/SVG/1.1/DTD/svg11.dtd">
<svg version="1.1" xmlns="http://www.w3.org/2000/svg" xmlns:xlink="http://www.w3.org/1999/xlink" x="0px" y="0px" width="18px"
	 height="17px" viewBox="0 0 18 17" enable-background="new 0 0 18 17" xml:space="preserve">
<g id="Layer_2">
</g>
<g id="Layer_1">
	<g>
		<path fill="#5E6D81" d="M2.635,2.152C4.393,0.719,6.514,0.002,9,0.002s4.607,0.717,6.364,2.15S18,5.324,18,7.366
			c0,2.043-0.879,3.78-2.636,5.213C13.607,14.015,11.486,14.73,9,14.73c-0.486,0-0.993-0.033-1.521-0.104
			c-1.568,1.582-3.188,2.371-4.854,2.371c-0.166,0-0.285-0.075-0.354-0.231c-0.057-0.166-0.029-0.307,0.082-0.419
			c0.084-0.084,0.191-0.21,0.324-0.378c0.131-0.167,0.318-0.51,0.562-1.027c0.242-0.519,0.398-1.056,0.469-1.615
			c-1.154-0.687-2.061-1.55-2.719-2.592C0.33,9.692,0,8.57,0,7.366C0,5.324,0.879,3.586,2.635,2.152z M3.438,8.247
			C3.729,8.54,4.084,8.689,4.5,8.689S5.271,8.54,5.562,8.247C5.854,7.956,6,7.597,6,7.179C6,6.76,5.854,6.401,5.562,6.107
			C5.271,5.815,4.916,5.667,4.5,5.667s-0.771,0.148-1.062,0.44C3.146,6.401,3,6.76,3,7.179C3,7.597,3.146,7.956,3.438,8.247z
			 M7.938,8.247C8.229,8.54,8.584,8.689,9,8.689c0.417,0,0.771-0.149,1.062-0.442c0.292-0.291,0.438-0.65,0.438-1.068
			c0-0.419-0.146-0.777-0.438-1.071C9.771,5.815,9.417,5.667,9,5.667c-0.416,0-0.771,0.148-1.062,0.44
			C7.646,6.401,7.5,6.76,7.5,7.179C7.5,7.597,7.646,7.956,7.938,8.247z M12.438,8.247c0.292,0.293,0.646,0.442,1.062,0.442
			s0.771-0.149,1.062-0.442C14.854,7.956,15,7.597,15,7.179c0-0.419-0.146-0.777-0.438-1.071c-0.292-0.292-0.646-0.44-1.062-0.44
			s-0.771,0.148-1.062,0.44C12.146,6.401,12,6.76,12,7.179C12,7.597,12.146,7.956,12.438,8.247z"/>
	</g>
</g>
</svg>
