<svg xmlns="http://www.w3.org/2000/svg" width="18" height="16" viewBox="0 0 18 16"><path fill="#14B9D6" d="M3 .38v2.287c0 .113-.035.205-.104.275-.07.07-.16.106-.27.106H.376c-.113 0-.203-.036-.273-.106S0 2.78 0 2.667V.38C0 .27.035.178.104.107.174.037.264 0 .374 0h2.25c.112 0 .202.035.272.105C2.966.177 3 .27 3 .38zm0 6.477v2.286c0 .113-.035.204-.104.274-.07.072-.16.106-.27.106H.376c-.113 0-.203-.035-.273-.106-.07-.07-.104-.16-.104-.273V6.857c0-.112.03-.204.1-.275.07-.07.16-.106.27-.106h2.25c.11 0 .2.035.27.106.07.07.1.163.1.275zm0 6.477v2.286c0 .113-.035.204-.104.275-.07.07-.16.105-.27.105H.376c-.113 0-.203-.035-.273-.106-.07-.07-.104-.162-.104-.274v-2.286c0-.113.03-.205.1-.275.07-.07.16-.11.27-.11h2.25c.11 0 .2.03.27.1s.1.16.1.27zM18 .38v2.287c0 .113-.035.205-.104.275s-.16.106-.27.106H4.876c-.113 0-.203-.036-.273-.106S4.5 2.78 4.5 2.667V.38c0-.11.035-.203.104-.274.07-.07.16-.106.27-.106h12.75c.112 0 .202.035.272.105.07.072.104.164.104.276zm0 6.477v2.286c0 .113-.035.204-.104.274-.07.072-.16.106-.27.106H4.876c-.113 0-.203-.035-.273-.106-.07-.07-.104-.16-.104-.273V6.857c0-.112.03-.204.1-.275.07-.07.16-.106.27-.106h12.75c.11 0 .2.035.27.106s.1.163.1.275zm0 6.477v2.286c0 .113-.035.204-.104.275-.07.07-.16.105-.27.105H4.876c-.113 0-.203-.035-.273-.106-.07-.07-.104-.162-.104-.274v-2.286c0-.113.03-.205.1-.275.07-.07.16-.11.27-.11h12.75c.11 0 .2.03.27.1s.1.16.1.27z"/></svg>