<?xml version="1.0" encoding="utf-8"?>
<!-- Generator: Adobe Illustrator 16.0.0, SVG Export Plug-In . SVG Version: 6.00 Build 0)  -->
<!DOCTYPE svg PUBLIC "-//W3C//DTD SVG 1.1//EN" "http://www.w3.org/Graphics/SVG/1.1/DTD/svg11.dtd">
<svg version="1.1" xmlns="http://www.w3.org/2000/svg" xmlns:xlink="http://www.w3.org/1999/xlink" x="0px" y="0px" width="14px"
	 height="18px" viewBox="0 0 14 18" enable-background="new 0 0 14 18" xml:space="preserve">
<g id="Layer_2">
</g>
<g id="Layer_1">
	<g>
		<path fill="#5E6D81" d="M12.834,7.875c0.315,0,0.59,0.111,0.82,0.333S14,8.695,14,9v7.875c0,0.306-0.115,0.569-0.346,0.792
			C13.424,17.889,13.149,18,12.834,18H1.166c-0.315,0-0.591-0.111-0.819-0.333C0.115,17.444,0,17.181,0,16.875V9
			c0-0.305,0.115-0.569,0.347-0.792c0.229-0.222,0.504-0.333,0.819-0.333h1.168V4.5c0-1.236,0.457-2.295,1.37-3.177
			C4.62,0.441,5.718,0,6.999,0c1.283,0,2.381,0.441,3.295,1.323c0.915,0.882,1.372,1.941,1.372,3.177v3.375H12.834z M4.667,4.5
			v3.375h4.666V4.5c0-0.625-0.228-1.156-0.681-1.594C8.198,2.469,7.648,2.25,6.999,2.25c-0.647,0-1.198,0.219-1.651,0.656
			S4.667,3.875,4.667,4.5z"/>
	</g>
</g>
</svg>
