<?xml version="1.0" encoding="utf-8"?>
<!-- Generator: Adobe Illustrator 16.0.0, SVG Export Plug-In . SVG Version: 6.00 Build 0)  -->
<!DOCTYPE svg PUBLIC "-//W3C//DTD SVG 1.1//EN" "http://www.w3.org/Graphics/SVG/1.1/DTD/svg11.dtd">
<svg version="1.1" xmlns="http://www.w3.org/2000/svg" xmlns:xlink="http://www.w3.org/1999/xlink" x="0px" y="0px" width="18px"
	 height="18px" viewBox="0 0 18 18" enable-background="new 0 0 18 18" xml:space="preserve">
<g id="Layer_2">
</g>
<g id="Layer_1">
	<g>
		<path fill="#14B9D6" d="M15.75,10.125c0,2.181-0.768,4.038-2.302,5.573C11.913,17.232,10.056,18,7.875,18
			s-4.039-0.768-5.572-2.302C0.768,14.163,0,12.306,0,10.125c0-2.18,0.768-4.038,2.303-5.573C3.836,3.018,5.694,2.25,7.875,2.25
			v7.875H15.75z M18,8.25c0,0.111-0.035,0.202-0.104,0.271s-0.159,0.104-0.271,0.104h-8.25v-8.25c0-0.111,0.034-0.201,0.104-0.271
			C9.549,0.035,9.639,0,9.75,0c2.277,0,4.222,0.806,5.833,2.417C17.194,4.028,18,5.972,18,8.25z"/>
	</g>
</g>
</svg>
