<?xml version="1.0" encoding="utf-8"?>
<!-- Generator: Adobe Illustrator 16.0.0, SVG Export Plug-In . SVG Version: 6.00 Build 0)  -->
<!DOCTYPE svg PUBLIC "-//W3C//DTD SVG 1.1//EN" "http://www.w3.org/Graphics/SVG/1.1/DTD/svg11.dtd">
<svg version="1.1" xmlns="http://www.w3.org/2000/svg" xmlns:xlink="http://www.w3.org/1999/xlink" x="0px" y="0px" width="16px"
	 height="16px" viewBox="0 0 16 16" enable-background="new 0 0 16 16" xml:space="preserve">
<g id="Layer_2">
</g>
<g id="Layer_1">
	<g>
		<path fill="#5E6D81" d="M15.99,0.375l-1.998,15.318c-0.024,0.123-0.088,0.209-0.187,0.258c-0.099,0.062-0.197,0.062-0.296,0
			l-5.089-2.534L6.59,15.859c-0.062,0.087-0.149,0.13-0.26,0.13c-0.051,0-0.088-0.006-0.111-0.019
			c-0.148-0.037-0.223-0.142-0.223-0.314v-3.331c0-0.086,0.025-0.154,0.074-0.203l7.273-9.361L3.887,10.92
			c-0.062,0.05-0.135,0.074-0.224,0.074c-0.049,0-0.097-0.012-0.147-0.037l-3.33-1.666C0.062,9.23,0,9.138,0,9.015
			c0-0.136,0.056-0.241,0.166-0.314l15.325-8.659c0.122-0.062,0.241-0.056,0.351,0.019C15.966,0.134,16.015,0.239,15.99,0.375z"/>
	</g>
</g>
</svg>
