<?xml version="1.0" encoding="utf-8"?>
<!-- Generator: Adobe Illustrator 16.0.0, SVG Export Plug-In . SVG Version: 6.00 Build 0)  -->
<!DOCTYPE svg PUBLIC "-//W3C//DTD SVG 1.1//EN" "http://www.w3.org/Graphics/SVG/1.1/DTD/svg11.dtd">
<svg version="1.1" xmlns="http://www.w3.org/2000/svg" xmlns:xlink="http://www.w3.org/1999/xlink" x="0px" y="0px" width="15px"
	 height="16px" viewBox="0 0 15 16" enable-background="new 0 0 15 16" xml:space="preserve">
<g id="Layer_2">
</g>
<g id="Layer_1">
	<g>
		<path fill="#5E6D81" d="M14.659,0c0.102,0,0.183,0.031,0.247,0.093C14.969,0.154,15,0.235,15,0.333v1.333
			c0,0.099-0.031,0.179-0.094,0.241C14.842,1.969,14.761,2,14.659,2H0.342C0.239,2,0.158,1.969,0.096,1.907
			C0.032,1.846,0,1.766,0,1.667V0.333c0-0.099,0.032-0.179,0.096-0.241C0.158,0.031,0.239,0,0.342,0H14.659z M1.364,3.333h12.272
			l-1.022,12.371C12.589,15.901,12.476,16,12.273,16H2.729c-0.203,0-0.316-0.099-0.342-0.296L1.364,3.333z"/>
	</g>
</g>
</svg>
