<?xml version="1.0" encoding="utf-8"?>
<!-- Generator: Adobe Illustrator 16.0.0, SVG Export Plug-In . SVG Version: 6.00 Build 0)  -->
<!DOCTYPE svg PUBLIC "-//W3C//DTD SVG 1.1//EN" "http://www.w3.org/Graphics/SVG/1.1/DTD/svg11.dtd">
<svg version="1.1" xmlns="http://www.w3.org/2000/svg" xmlns:xlink="http://www.w3.org/1999/xlink" x="0px" y="0px" width="12px"
	 height="16px" viewBox="0 0 12 16" enable-background="new 0 0 12 16" xml:space="preserve">
<g id="Layer_2">
</g>
<g id="Layer_1">
	<g>
		<path fill="#FFFFFF" d="M12,1.222v7.259c0,0.111-0.062,0.21-0.186,0.296C11.111,9.148,10.34,9.333,9.5,9.333
			c-0.753,0-1.92-0.222-3.5-0.666S3.253,8,2.5,8C2.438,8,2.352,8.003,2.24,8.009C2.129,8.016,2.049,8.019,2,8.019v7.648
			c0,0.099-0.031,0.179-0.093,0.24C1.846,15.97,1.766,16,1.666,16H0.334c-0.1,0-0.18-0.03-0.241-0.093
			C0.031,15.846,0,15.766,0,15.667V0.852c0-0.124,0.056-0.216,0.166-0.278C0.857,0.191,1.636,0,2.5,0C3.253,0,4.42,0.222,6,0.667
			c1.58,0.445,2.747,0.667,3.5,0.667c0.741,0,1.42-0.142,2.037-0.426c0.123-0.049,0.229-0.037,0.314,0.037
			C11.95,1.006,12,1.099,12,1.222z"/>
	</g>
</g>
</svg>
